<svg xmlns="http://www.w3.org/2000/svg" width="48" height="48" viewBox="0 0 12.7 12.7" id="landing-page"><g color="#000" font-family="sans-serif" font-weight="400"><path fill="#afbdc1" style="line-height:normal;font-variant-ligatures:normal;font-variant-position:normal;font-variant-caps:normal;font-variant-numeric:normal;font-variant-alternates:normal;font-feature-settings:normal;text-indent:0;text-align:start;text-decoration-line:none;text-decoration-style:solid;text-decoration-color:#000;text-transform:none;text-orientation:mixed;shape-padding:0;isolation:auto;mix-blend-mode:normal" d="M7.162 287.928c-.3 0-.547.247-.547.547v10.019c0 .3.246.546.547.546H17.18c.3 0 .546-.246.546-.546v-10.019a.55.55 0 0 0-.546-.547z" overflow="visible" transform="matrix(.99996 0 0 1.00017 -5.821 -287.183)"></path><path fill="#dce2e4" d="M7.41 287.928v9.772c0 .3.245.546.545.546h9.772v-9.77a.55.55 0 0 0-.546-.548z" overflow="visible" style="line-height:normal;font-variant-ligatures:normal;font-variant-position:normal;font-variant-caps:normal;font-variant-numeric:normal;font-variant-alternates:normal;font-feature-settings:normal;text-indent:0;text-align:start;text-decoration-line:none;text-decoration-style:solid;text-decoration-color:#000;text-transform:none;text-orientation:mixed;shape-padding:0;isolation:auto;mix-blend-mode:normal" transform="matrix(.99996 0 0 1.00017 -5.821 -287.183)"></path><path fill="#c03104" style="line-height:normal;font-variant-ligatures:normal;font-variant-position:normal;font-variant-caps:normal;font-variant-numeric:normal;font-variant-alternates:normal;font-feature-settings:normal;text-indent:0;text-align:start;text-decoration-line:none;text-decoration-style:solid;text-decoration-color:#000;text-transform:none;text-orientation:mixed;shape-padding:0;isolation:auto;mix-blend-mode:normal" d="M17.727 290.044v-1.587a.551.551 0 0 0-.548-.549H7.164a.55.55 0 0 0-.549.549v1.587" overflow="visible" transform="matrix(.99996 0 0 1.00017 -5.821 -287.183)"></path><path fill="#fa501a" d="M7.41 287.928v2.116h10.317v-1.569a.55.55 0 0 0-.546-.547z" overflow="visible" style="line-height:normal;font-variant-ligatures:normal;font-variant-position:normal;font-variant-caps:normal;font-variant-numeric:normal;font-variant-alternates:normal;font-feature-settings:normal;text-indent:0;text-align:start;text-decoration-line:none;text-decoration-style:solid;text-decoration-color:#000;text-transform:none;text-orientation:mixed;shape-padding:0;isolation:auto;mix-blend-mode:normal" transform="matrix(.99996 0 0 1.00017 -5.821 -287.183)"></path><path fill="#c06f04" style="line-height:normal;font-variant-ligatures:normal;font-variant-position:normal;font-variant-caps:normal;font-variant-numeric:normal;font-variant-alternates:normal;font-feature-settings:normal;text-indent:0;text-align:start;text-decoration-line:none;text-decoration-style:solid;text-decoration-color:#000;text-transform:none;text-orientation:mixed;shape-padding:0;isolation:auto;mix-blend-mode:normal" d="M11.906 292.69V294.279H13.758l-.793-1.587h-1.059z" overflow="visible" transform="matrix(.99996 0 0 1.00017 -5.821 -287.183)"></path><path fill="#0559e7" style="line-height:normal;font-variant-ligatures:normal;font-variant-position:normal;font-variant-caps:normal;font-variant-numeric:normal;font-variant-alternates:normal;font-feature-settings:normal;text-indent:0;text-align:start;text-decoration-line:none;text-decoration-style:solid;text-decoration-color:#000;text-transform:none;text-orientation:mixed;shape-padding:0;isolation:auto;mix-blend-mode:normal" d="M8.201 292.69v1.591l1.056 2.113h5.559c.4 0 .724-.061.96-.23.222-.159.364-.439.364-.827 0-.39-.142-.67-.365-.83-.235-.167-.56-.23-.96-.23h-4.333a.264.264 0 0 1-.236-.145l-.72-1.441-.001-.001z" overflow="visible" transform="matrix(.99996 0 0 1.00017 -5.821 -287.183)"></path><path fill="#4186fb" style="line-height:normal;font-variant-ligatures:normal;font-variant-position:normal;font-variant-caps:normal;font-variant-numeric:normal;font-variant-alternates:normal;font-feature-settings:normal;text-indent:0;text-align:start;text-decoration-line:none;text-decoration-style:solid;text-decoration-color:#000;text-transform:none;text-orientation:mixed;shape-padding:0;isolation:auto;mix-blend-mode:normal" d="M8.995 292.69v1.591l1.056 2.113H14.816c.4 0 .724-.061.96-.23.223-.159.364-.439.364-.827 0-.39-.142-.67-.365-.83-.235-.167-.56-.23-.96-.23h-4.333a.264.264 0 0 1-.236-.145l-.72-1.441-.001-.001z" overflow="visible" transform="matrix(.99996 0 0 1.00017 -5.821 -287.183)"></path><path fill="#fa991a" style="line-height:normal;font-variant-ligatures:normal;font-variant-position:normal;font-variant-caps:normal;font-variant-numeric:normal;font-variant-alternates:normal;font-feature-settings:normal;text-indent:0;text-align:start;text-decoration-line:none;text-decoration-style:solid;text-decoration-color:#000;text-transform:none;text-orientation:mixed;shape-padding:0;isolation:auto;mix-blend-mode:normal" d="M12.435 292.69v1.587l1.323.001-.793-1.587z" overflow="visible" transform="matrix(.99996 0 0 1.00017 -5.821 -287.183)"></path><path fill="#444" style="line-height:normal;font-variant-ligatures:normal;font-variant-position:normal;font-variant-caps:normal;font-variant-numeric:normal;font-variant-alternates:normal;font-feature-settings:normal;text-indent:0;text-align:start;text-decoration-line:none;text-decoration-style:solid;text-decoration-color:#000;text-transform:none;text-orientation:mixed;shape-padding:0;isolation:auto;mix-blend-mode:normal" d="M7.143 287.664a.796.796 0 0 0-.792.792v10.055c0 .435.357.793.792.793h10.055a.798.798 0 0 0 .795-.793v-10.055a.798.798 0 0 0-.795-.792zm0 .529h6.086v1.586H7.41v.529h10.054v8.203a.258.258 0 0 1-.265.263H7.143a.257.257 0 0 1-.263-.263v-10.055c0-.15.112-.263.263-.263zm6.615 0h3.44c.15 0 .265.112.265.263v1.323h-3.705zm.53.53v.529h.53v-.53zm1.058 0v.529h.53v-.53zm1.059 0v.529h.53v-.53zm-8.203 3.702a.265.265 0 0 0-.263.266v1.585c0 .042.008.083.027.12l1.058 2.117c.045.09.136.146.237.146h1.851v-.53H9.425l-.957-1.915v-1.26h.894l.72 1.442c.045.09.137.146.237.146h4.498c.368 0 .643.066.805.182.161.115.254.273.254.611 0 .338-.093.496-.254.611-.162.116-.437.184-.805.184h-3.176v.53h3.176c.426 0 .812-.067 1.113-.282.301-.215.475-.587.475-1.043 0-.456-.174-.825-.475-1.04-.301-.216-.687-.282-1.113-.282h-.895l-.72-1.441a.265.265 0 0 0-.236-.147h-1.059a.265.265 0 0 0-.266.266v1.322h-1.158l-.72-1.441a.265.265 0 0 0-.237-.147zm3.969.53h.63l.53 1.058h-1.16v-.53zm0 2.117v.529h.529v-.53zm1.058 0v.529h.53v-.53zm1.059 0v.529h.53v-.53z" overflow="visible" transform="matrix(.99996 0 0 1.00017 -5.821 -287.183)"></path></g></svg>